<svg xmlns="http://www.w3.org/2000/svg" viewBox="0 0 512 512" width="192" height="192">
  <path d="M256 80c-70 0-130 45-150 110-3 10-14 15-24 12-10-3-15-14-12-24 25-80 98-138 186-138 107 0 194 87 194 194S363 428 256 428v-40c85 0 154-69 154-154 0-82-65-150-145-154z" fill="#8A9E59"/>
  <circle cx="256" cy="180" r="35" fill="#D8B472"/>
  <path d="M256 260c-25 0-45 15-55 35-4 8-15 12-23 8-8-5-12-15-8-24 15-35 55-60 86-60s71 25 86 60c4 9 0 19-8 24-8 4-19 0-23-8-10-20-30-35-55-35z" fill="#8A9E59"/>
</svg>
